<svg width="718" height="425" viewBox="0 0 718 425" fill="none" xmlns="http://www.w3.org/2000/svg">
<mask id="mask0_1609_1174" style="mask-type:luminance" maskUnits="userSpaceOnUse" x="24" y="142" width="670" height="140">
<path d="M693.124 142.008H24V281.721H693.124V142.008Z" fill="white"/>
</mask>
<g mask="url(#mask0_1609_1174)">
<path d="M205.753 176.685H234.298C247.041 176.685 255.71 185.355 255.71 195.546C255.71 200.942 253.467 204.308 251.329 206.66C250.1 207.982 248.686 209.012 247.041 209.826C249.392 210.749 251.422 212.071 253.159 213.7C256.325 216.451 259.276 220.74 259.276 227.166C259.276 238.387 249.593 248.071 235.82 248.071H205.737V176.685H205.753ZM234.298 205.738C240.415 205.738 244.49 201.756 244.49 196.053C244.49 190.351 240.415 186.369 234.298 186.369H216.959V205.738H234.298ZM235.835 238.371C243.075 238.371 248.071 233.268 248.071 226.643C248.071 220.018 243.075 214.914 235.835 214.914H216.974V238.371H235.835Z" fill="#001A4F"/>
<path d="M295.477 176.685H306.698V248.055H295.477V176.685Z" fill="#001A4F"/>
<path d="M380.62 174.661C402.032 174.661 418.342 190.97 418.342 211.368C418.342 231.766 402.032 248.075 380.62 248.075C359.207 248.075 342.897 231.766 342.897 211.368C342.897 190.97 359.207 174.661 380.62 174.661ZM380.62 237.884C395.408 237.884 407.136 226.155 407.136 211.368C407.136 196.581 395.408 184.852 380.62 184.852C365.833 184.852 354.104 196.581 354.104 211.368C354.104 226.155 365.833 237.884 380.62 237.884Z" fill="#001A4F"/>
<path d="M454.542 176.685H484.117C497.874 176.685 507.574 186.477 507.574 199.112C507.574 207.167 504.1 212.055 500.749 215.222C498.704 217.051 496.46 218.481 493.924 219.51L510.141 248.055H497.398L482.61 221.539H465.794V248.055H454.573V176.685H454.542ZM484.117 211.348C491.357 211.348 496.352 206.352 496.352 199.112C496.352 191.872 491.357 186.877 484.117 186.877H465.764V211.348H484.117Z" fill="#001A4F"/>
<path d="M607.981 234.806C605.844 237.449 603.4 239.801 600.433 241.938C595.438 245.504 588.197 249.07 578.405 249.07C556.993 249.07 540.684 232.761 540.684 212.363C540.684 191.965 556.993 175.656 578.405 175.656C588.197 175.656 595.33 179.022 600.217 182.588C602.969 184.633 605.414 186.877 607.458 189.413L600.326 196.546C598.896 194.609 597.067 192.78 594.915 191.242C591.241 188.491 585.738 185.847 578.39 185.847C563.603 185.847 551.874 197.576 551.874 212.363C551.874 227.15 563.603 238.879 578.39 238.879C585.738 238.879 591.334 236.127 595.114 233.268C597.359 231.639 599.296 229.794 600.818 227.658L607.95 234.79L607.981 234.806Z" fill="#001A4F"/>
<path d="M641.629 176.685H692.094V187.399H652.834V205.753H683.931V216.451H652.834V237.357H693.108V248.055H641.614V176.685H641.629Z" fill="#001A4F"/>
<path d="M127.435 230.274C127.312 228.921 127.343 227.522 127.02 226.215C125.406 219.544 118.489 214.349 111.695 214.579C104.347 214.841 98.1371 220.159 96.9226 227.307C96.4308 230.274 96.4308 233.363 95.5854 236.222C92.9415 245.076 85.8091 250.18 75.9252 250.902C73.8193 251.056 71.6365 251.486 69.6843 252.27C61.5835 255.498 58.0788 265.489 62.1369 273.344C66.2411 281.291 76.2941 284.135 83.7339 279.477C88.7297 276.358 91.0815 271.7 91.2814 265.997C91.4043 262.308 92.1882 258.896 94.079 255.759C98.383 248.673 104.901 245.63 113.017 245.461C120.764 245.292 127.85 237.698 127.435 230.289V230.274Z" fill="url(#paint0_linear_1609_1174)"/>
<path d="M75.4485 245.314C76.8013 245.191 78.2001 245.222 79.5066 244.899C86.1778 243.285 91.3735 236.368 91.1429 229.574C90.8816 222.226 85.563 216.016 78.4152 214.802C75.4485 214.31 72.3589 214.31 69.4997 213.465C60.6457 210.821 55.5423 203.688 54.8199 193.804C54.6662 191.698 54.2358 189.516 53.4518 187.563C50.2239 179.463 40.2323 175.958 32.3774 180.016C24.4303 184.12 21.5866 194.173 26.2442 201.613C29.3646 206.609 34.0222 208.961 39.725 209.16C43.4142 209.283 46.8267 210.067 49.9625 211.958C57.0488 216.262 60.0923 222.78 60.2615 230.896C60.4306 238.643 68.024 245.729 75.4331 245.314H75.4485Z" fill="url(#paint1_linear_1609_1174)"/>
<path d="M60.6453 193.46C60.7682 194.812 60.7375 196.211 61.0604 197.518C62.6743 204.189 69.5915 209.385 76.3858 209.154C83.7334 208.893 89.9435 203.574 91.1579 196.426C91.6497 193.46 91.6497 190.37 92.4952 187.511C95.1391 178.657 102.271 173.553 112.155 172.831C114.261 172.677 116.444 172.247 118.396 171.463C126.497 168.235 130.002 158.243 125.944 150.389C121.839 142.441 111.786 139.598 104.347 144.255C99.3509 147.376 96.9991 152.033 96.7992 157.736C96.6762 161.425 95.8923 164.838 94.0016 167.974C89.6975 175.06 83.18 178.103 75.0638 178.272C67.3165 178.442 60.2302 186.035 60.6453 193.444V193.46Z" fill="url(#paint2_linear_1609_1174)"/>
<path d="M112.632 178.407C111.28 178.53 109.881 178.499 108.574 178.822C101.903 180.436 96.7075 187.353 96.9381 194.148C97.1994 201.495 102.518 207.705 109.666 208.92C112.632 209.412 115.722 209.412 118.581 210.257C127.435 212.901 132.539 220.033 133.261 229.917C133.415 232.023 133.845 234.206 134.629 236.158C137.857 244.259 147.849 247.764 155.703 243.705C163.651 239.601 166.494 229.548 161.837 222.108C158.716 217.113 154.058 214.761 148.356 214.561C144.666 214.438 141.254 213.654 138.118 211.763C131.032 207.459 127.989 200.942 127.82 192.826C127.651 185.078 120.057 177.992 112.648 178.407H112.632Z" fill="url(#paint3_linear_1609_1174)"/>
<path d="M77.846 173.686C86.9614 173.594 92.9717 164.786 92.5259 157.469C92.0187 149.199 84.2868 142.343 76.2629 142.896C67.3627 143.511 60.8759 151.074 61.5984 160.02C62.2439 167.937 69.8067 174.301 77.846 173.686Z" fill="url(#paint4_linear_1609_1174)"/>
<path d="M148.816 209.79C157.931 209.698 163.942 200.89 163.496 193.573C162.989 185.303 155.257 178.447 147.233 179.001C138.333 179.616 131.846 187.178 132.569 196.125C133.214 204.041 140.777 210.405 148.816 209.79Z" fill="url(#paint5_linear_1609_1174)"/>
<path d="M41.0315 244.493C50.1468 244.4 56.1571 235.592 55.7112 228.276C55.204 220.006 47.4721 213.15 39.4482 213.703C30.548 214.318 24.0612 221.881 24.7837 230.827C25.4293 238.744 32.9921 245.107 41.0315 244.493Z" fill="url(#paint6_linear_1609_1174)"/>
<path d="M112.278 280.978C121.394 280.885 127.404 272.077 126.958 264.761C126.451 256.49 118.719 249.635 110.695 250.188C101.795 250.803 95.3083 258.366 96.0308 267.312C96.6763 275.228 104.239 281.593 112.278 280.978Z" fill="url(#paint7_linear_1609_1174)"/>
</g>
<defs>
<linearGradient id="paint0_linear_1609_1174" x1="79.6911" y1="329.282" x2="106.73" y2="175.966" gradientUnits="userSpaceOnUse">
<stop stop-color="#A5F6FF"/>
<stop offset="1" stop-color="#5EBABA"/>
</linearGradient>
<linearGradient id="paint1_linear_1609_1174" x1="51.4382" y1="246.667" x2="73.7423" y2="120.174" gradientUnits="userSpaceOnUse">
<stop stop-color="#A5F6FF"/>
<stop offset="1" stop-color="#5EBABA"/>
</linearGradient>
<linearGradient id="paint2_linear_1609_1174" x1="79.7368" y1="256.898" x2="106.775" y2="103.567" gradientUnits="userSpaceOnUse">
<stop stop-color="#A5F6FF"/>
<stop offset="1" stop-color="#5EBABA"/>
</linearGradient>
<linearGradient id="paint3_linear_1609_1174" x1="113.017" y1="311.079" x2="135.321" y2="184.586" gradientUnits="userSpaceOnUse">
<stop stop-color="#A5F6FF"/>
<stop offset="1" stop-color="#5EBABA"/>
</linearGradient>
<linearGradient id="paint4_linear_1609_1174" x1="66.8708" y1="216.05" x2="91.6343" y2="75.5844" gradientUnits="userSpaceOnUse">
<stop stop-color="#A5F6FF"/>
<stop offset="1" stop-color="#5EBABA"/>
</linearGradient>
<linearGradient id="paint5_linear_1609_1174" x1="125.575" y1="321.787" x2="150.339" y2="181.322" gradientUnits="userSpaceOnUse">
<stop stop-color="#A5F6FF"/>
<stop offset="1" stop-color="#5EBABA"/>
</linearGradient>
<linearGradient id="paint6_linear_1609_1174" x1="36.42" y1="250.718" x2="61.1835" y2="110.268" gradientUnits="userSpaceOnUse">
<stop stop-color="#A5F6FF"/>
<stop offset="1" stop-color="#5EBABA"/>
</linearGradient>
<linearGradient id="paint7_linear_1609_1174" x1="95.3389" y1="357.113" x2="120.118" y2="216.663" gradientUnits="userSpaceOnUse">
<stop stop-color="#A5F6FF"/>
<stop offset="1" stop-color="#5EBABA"/>
</linearGradient>
</defs>
</svg>
